<?xml version="1.0" standalone="no"?>
<!DOCTYPE svg PUBLIC "-//W3C//DTD SVG 20010904//EN"
 "http://www.w3.org/TR/2001/REC-SVG-20010904/DTD/svg10.dtd">
<svg version="1.0" xmlns="http://www.w3.org/2000/svg"
 width="512.000000pt" height="512.000000pt" viewBox="0 0 512.000000 512.000000"
 preserveAspectRatio="xMidYMid meet">

<g transform="translate(0.000000,512.000000) scale(0.100000,-0.100000)"
fill="#000000" stroke="none">
<path d="M1163 4609 c-40 -12 -1134 -1093 -1153 -1139 -7 -16 -9 -42 -6 -57
10 -39 869 -899 912 -913 41 -14 72 -2 129 51 l45 42 0 -1004 c0 -977 1 -1005
20 -1036 13 -21 31 -35 57 -42 41 -12 2725 -16 2782 -5 17 4 42 18 56 32 l25
25 0 1015 0 1015 45 -42 c57 -53 88 -65 129 -51 43 14 902 874 912 913 3 15 1
41 -6 57 -7 17 -263 279 -571 585 -529 524 -562 554 -602 560 -23 3 -213 5
-422 3 -457 -4 -431 4 -460 -144 -20 -106 -68 -197 -142 -271 -100 -100 -211
-146 -353 -146 -142 0 -253 46 -353 146 -74 74 -122 165 -142 271 -29 149 -1
141 -475 143 -227 1 -409 -2 -427 -8z"/>
</g>
</svg>
