<svg width="48" height="48" viewBox="0 0 48 48" fill="none" xmlns="http://www.w3.org/2000/svg">
<path fill-rule="evenodd" clip-rule="evenodd" d="M34.9095 35.9507C37.4734 32.6497 39 28.5028 39 23.9995C39 19.4962 37.4735 15.3495 34.9097 12.0485C35.2688 12.0161 35.6325 11.9996 36 11.9996C42.6274 11.9996 48 17.3722 48 23.9996C48 30.627 42.6274 35.9996 36 35.9996C35.6324 35.9996 35.2687 35.983 34.9095 35.9507Z" fill="url(#paint0_linear_16_98)"/>
<path fill-rule="evenodd" clip-rule="evenodd" d="M34.9095 35.9511C37.4734 32.6501 39 28.5033 39 23.9999C39 19.4966 37.4735 15.3499 34.9097 12.0489C28.7932 12.5998 24 17.7401 24 24C24 30.2599 28.7931 35.4002 34.9095 35.9511Z" fill="url(#paint1_linear_16_98)"/>
<path fill-rule="evenodd" clip-rule="evenodd" d="M34.9097 12.049C28.7932 12.5998 24 17.7402 24 24.0001C24 30.2599 28.7931 35.4003 34.9096 35.9512C31.3421 40.5444 25.7662 43.5 19.5 43.5C8.73045 43.5 0 34.7696 0 24C0 13.2304 8.73045 4.5 19.5 4.5C25.7663 4.5 31.3422 7.45568 34.9097 12.049Z" fill="url(#paint2_linear_16_98)"/>
<defs>
<linearGradient id="paint0_linear_16_98" x1="34.9199" y1="11.9996" x2="34.9199" y2="35.9996" gradientUnits="userSpaceOnUse">
<stop stop-color="#5BC2E7"/>
<stop offset="1" stop-color="#0078CE"/>
</linearGradient>
<linearGradient id="paint1_linear_16_98" x1="27.39" y1="15.795" x2="35.16" y2="35.94" gradientUnits="userSpaceOnUse">
<stop stop-color="#9DDAF1"/>
<stop offset="1" stop-color="#0078CE"/>
</linearGradient>
<linearGradient id="paint2_linear_16_98" x1="7.44001" y1="9.795" x2="29.04" y2="41.025" gradientUnits="userSpaceOnUse">
<stop stop-color="#FBAC13"/>
<stop offset="0.45223" stop-color="#FF4F00"/>
<stop offset="1" stop-color="#FF4F00"/>
</linearGradient>
</defs>
</svg>
